<?xml version="1.0" encoding="UTF-8"?>
<svg width="25px" height="25px" viewBox="0 0 25 25" version="1.1" xmlns="http://www.w3.org/2000/svg"
  xmlns:xlink="http://www.w3.org/1999/xlink">
  <!-- Generator: Sketch 60.1 (88133) - https://sketch.com -->
  <title>自定义文本框</title>
  <desc>Created with Sketch.</desc>
  <g id="页面-1" stroke="none" stroke-width="1" fill="none" fill-rule="evenodd">
    <g id="标签设置（自定义模式）" transform="translate(-368.000000, -466.000000)" fill="#333333" fill-rule="nonzero">
      <g id="自定义文本框-2" transform="translate(369.000000, 467.000000)">
        <g id="自定义文本框">
          <path d="M21,-1 L-1,-1 L-1,21 L21,21 L21,-1 Z M19,1 L19,19 L1,19 L1,1 L19,1 Z" id="矩形"></path>
          <polygon id="矩形备份-4"
            points="24 3 24 24 3 24 3 19.4446154 4.68 19.4446154 4.68 22.32 22.32 22.32 22.32 4.68 20.1876923 4.68 20.1876923 3">
          </polygon>
          <path
            d="M3.93759513,14 L4.74733638,11.4789916 L8.24200913,11.4789916 L9.05175038,14 L10,14 L7.00608828,5 L5.99391172,5 L3,14 L3.93759513,14 Z M8,10 L5,10 L6.48913043,6 L6.5326087,6 L8,10 Z M12.8901099,14 C13.4175824,14 13.8901099,13.8587156 14.3076923,13.5889908 C14.6593407,13.3577982 14.956044,13.0623853 15.1758242,12.7027523 L15.1758242,13.8201835 L16,13.8201835 L16,9.5559633 C16,8.7853211 15.8241758,8.18165138 15.4945055,7.74495413 C15.0989011,7.2440367 14.5054945,7 13.6923077,7 C13.010989,7 12.4725275,7.15412844 12.0549451,7.46238532 C11.5934066,7.79633028 11.2967033,8.32293578 11.1758242,9.01651376 L12.043956,9.09357798 C12.1318681,8.66972477 12.3186813,8.34862385 12.6153846,8.14311927 C12.8791209,7.93761468 13.2197802,7.84770642 13.6373626,7.84770642 C14.6263736,7.84770642 15.1208791,8.4 15.1208791,9.51743119 L15.1208791,9.86422018 L13.7582418,9.88990826 C12.9010989,9.90275229 12.2417582,10.0954128 11.7802198,10.4550459 C11.2527473,10.840367 11,11.4055046 11,12.1633028 C11,12.7027523 11.1758242,13.1522936 11.5274725,13.4990826 C11.8681319,13.8330275 12.3186813,14 12.8901099,14 Z M13.0955631,13 C12.7679181,13 12.5017065,12.919598 12.2969283,12.7688442 C12.0921502,12.6080402 12,12.4170854 12,12.1758794 C12,11.4221106 12.5938567,11.040201 13.78157,11.0201005 L15,11 L15,11.4422111 C15,11.8442211 14.8054608,12.2060302 14.4266212,12.5175879 C14.0375427,12.839196 13.5972696,13 13.0955631,13 Z"
            id="Aa"></path>
        </g>
      </g>
    </g>
  </g>
</svg>
