<?xml version="1.0" encoding="UTF-8"?>
<svg width="24px" height="24px" viewBox="0 0 24 24" version="1.1" xmlns="http://www.w3.org/2000/svg"
  xmlns:xlink="http://www.w3.org/1999/xlink">
  <!-- Generator: Sketch 60.1 (88133) - https://sketch.com -->
  <title>公司logo</title>
  <desc>Created with Sketch.</desc>
  <g id="页面-1" stroke="none" stroke-width="1" fill="none" fill-rule="evenodd">
    <g id="标签设置（自定义模式）" transform="translate(-369.000000, -386.000000)" fill-rule="nonzero">
      <g id="公司logo-2" transform="translate(369.000000, 386.000000)">
        <g id="公司logo" transform="translate(2.000000, 1.000000)">
          <path d="M21,0 L-1,0 L-1,22 L21,22 L21,0 Z M19,2 L19,20 L1,20 L1,2 L19,2 Z" id="矩形" fill="#000000"></path>
          <path
            d="M6.864,17 L6.864,12.28 L9.952,12.28 C10.608,12.28 11.104,12.408 11.456,12.696 C11.792,12.984 12,13.432 12.064,14.072 L12.208,15.496 C12.272,16.136 12.432,16.648 12.704,17 L14.592,17 C14.208,16.584 13.984,16.024 13.92,15.32 L13.728,13.496 C13.6,12.376 13.04,11.704 12.016,11.48 L12.016,11.448 C12.64,11.288 13.136,10.952 13.504,10.44 C13.824,9.976 13.984,9.448 13.984,8.84 C13.984,7.752 13.632,6.936 12.928,6.36 C12.256,5.832 11.328,5.576 10.176,5.576 L5.12,5.576 L5.12,17 L6.864,17 Z M9.952,10.792 L6.864,10.792 L6.864,7.064 L9.936,7.064 C10.736,7.064 11.312,7.208 11.696,7.512 C12.048,7.8 12.24,8.264 12.24,8.904 C12.24,9.512 12.048,9.976 11.68,10.296 C11.296,10.616 10.72,10.792 9.952,10.792 Z"
            id="R" fill="#333333"></path>
        </g>
      </g>
    </g>
  </g>
</svg>
