<?xml version="1.0" encoding="UTF-8"?>
<svg width="25px" height="25px" viewBox="0 0 25 25" version="1.1" xmlns="http://www.w3.org/2000/svg"
  xmlns:xlink="http://www.w3.org/1999/xlink">
  <!-- Generator: Sketch 60.1 (88133) - https://sketch.com -->
  <title>二维码</title>
  <desc>Created with Sketch.</desc>
  <g id="页面-1" stroke="none" stroke-width="1" fill="none" fill-rule="evenodd">
    <g id="标签设置（自定义模式）" transform="translate(-369.000000, -226.000000)" fill="#000000" fill-rule="nonzero">
      <g id="二维码-2" transform="translate(369.000000, 226.000000)">
        <g id="二维码">
          <rect id="矩形" opacity="0" x="0" y="0" width="25" height="25"></rect>
          <path
            d="M10.4939759,2 L4.75903614,2 C3.78754217,2 3,2.79622158 3,3.77842227 L3,9.57656613 C3,10.5587668 3.78754217,11.3549884 4.75903614,11.3549884 L10.4939759,11.3549884 C11.4654699,11.3549884 12.253012,10.5587668 12.253012,9.57656613 L12.253012,3.77842227 C12.253012,2.79622158 11.4654699,2 10.4939759,2 Z M10.6626506,9.25986079 C10.6626506,9.52896288 10.4468916,9.74709977 10.1807229,9.74709977 L4.97590361,9.74709977 C4.70973494,9.74709977 4.4939759,9.52896288 4.4939759,9.25986079 L4.4939759,3.99767981 C4.4939759,3.72857773 4.70973494,3.51044084 4.97590361,3.51044084 L10.1807229,3.51044084 C10.4468916,3.51044084 10.6626506,3.72857773 10.6626506,3.99767981 L10.6626506,9.25986079 Z M10.4939759,13.6450116 L4.75903614,13.6450116 C3.78754217,13.6450116 3,14.4412575 3,15.4234339 L3,21.2215777 C3,22.2037541 3.78754217,23 4.75903614,23 L10.4939759,23 C11.4654699,23 12.253012,22.2037541 12.253012,21.2215777 L12.253012,15.4234339 C12.253012,14.4412575 11.4654699,13.6450116 10.4939759,13.6450116 Z M10.6626506,20.9048724 C10.6626506,21.1739745 10.4468916,21.3921114 10.1807229,21.3921114 L4.97590361,21.3921114 C4.70973494,21.3921114 4.4939759,21.1739745 4.4939759,20.9048724 L4.4939759,15.6426914 C4.4939759,15.3735893 4.70973494,15.1554524 4.97590361,15.1554524 L10.1807229,15.1554524 C10.4468916,15.1554524 10.6626506,15.3735893 10.6626506,15.6426914 L10.6626506,20.9048724 Z M21.2409639,2 L15.5060241,2 C14.5345542,2 13.746988,2.79622158 13.746988,3.77842227 L13.746988,9.57656613 C13.746988,10.5587668 14.5345542,11.3549884 15.5060241,11.3549884 L21.2409639,11.3549884 C22.2124337,11.3549884 23,10.5587668 23,9.57656613 L23,3.77842227 C23,2.79622158 22.2124337,2 21.2409639,2 Z M21.4096386,9.25986079 C21.4096386,9.52896288 21.1938795,9.74709977 20.9277108,9.74709977 L15.7228916,9.74709977 C15.4567229,9.74709977 15.2409639,9.52896288 15.2409639,9.25986079 L15.2409639,3.99767981 C15.2409639,3.72857773 15.4567229,3.51044084 15.7228916,3.51044084 L20.9277108,3.51044084 C21.1938795,3.51044084 21.4096386,3.72857773 21.4096386,3.99767981 L21.4096386,9.25986079 Z M21.4578313,13.6450116 C21.0319759,13.6450116 20.686747,13.9940452 20.686747,14.424594 L20.686747,22.2204176 C20.686747,22.6509664 21.0319759,23 21.4578313,23 C21.8836867,23 22.2289157,22.6509664 22.2289157,22.2204176 L22.2289157,14.424594 C22.2289157,13.9940452 21.8836867,13.6450116 21.4578313,13.6450116 Z M15.2891566,15.2041763 C14.8633012,15.2041763 14.5180723,15.55321 14.5180723,15.9837587 L14.5180723,22.2204176 C14.5180723,22.6509664 14.8633012,23 15.2891566,23 C15.715012,23 16.060241,22.6509664 16.060241,22.2204176 L16.060241,15.9837587 C16.060241,15.55321 15.715012,15.2041763 15.2891566,15.2041763 Z M18.373494,16.7633411 C17.9476386,16.7633411 17.6024096,17.1123747 17.6024096,17.5429234 L17.6024096,22.2204176 C17.6024096,22.6509664 17.9476386,23 18.373494,23 C18.7993494,23 19.1445783,22.6509664 19.1445783,22.2204176 L19.1445783,17.5429234 C19.1445783,17.1123747 18.7993494,16.7633411 18.373494,16.7633411 Z"
            id="形状"></path>
        </g>
      </g>
    </g>
  </g>
</svg>
